<svg xmlns="http://www.w3.org/2000/svg" fill="none"><g clip-path="url(#a)" filter="url(#b)"><path fill="#F4F4FD" d="M15.997 3.985h2.191V.17C17.81.117 16.51 0 14.996 0c-3.159 0-5.323 1.987-5.323 5.64V9H6.187v4.266h3.486V24h4.274V13.267h3.345l.531-4.266h-3.877V6.062c.001-1.233.333-2.077 2.051-2.077Z"/><path stroke="#000" d="M9.673 9.5h.5V5.64c0-1.728.51-3 1.334-3.84C12.33.961 13.522.5 14.996.5c1.117 0 2.113.065 2.692.118v2.867h-1.691c-.93 0-1.623.229-2.057.76-.414.508-.493 1.18-.494 1.817v3.44h3.81l-.406 3.265h-3.403V23.5h-3.274V12.766H6.687V9.5h2.986Z"/></g><defs><clipPath id="a"><path fill="#fff" d="M0 0h24v24H0z"/></clipPath><filter id="b" width="20.001" height="32" x="2.187" y="0" color-interpolation-filters="sRGB" filterUnits="userSpaceOnUse"><feFlood flood-opacity="0" result="BackgroundImageFix"/><feColorMatrix in="SourceAlpha" result="hardAlpha" values="0 0 0 0 0 0 0 0 0 0 0 0 0 0 0 0 0 0 127 0"/><feOffset dy="4"/><feGaussianBlur stdDeviation="2"/><feComposite in2="hardAlpha" operator="out"/><feColorMatrix values="0 0 0 0 0 0 0 0 0 0 0 0 0 0 0 0 0 0 0.25 0"/><feBlend in2="BackgroundImageFix" result="effect1_dropShadow_297016_408"/><feBlend in="SourceGraphic" in2="effect1_dropShadow_297016_408" result="shape"/></filter></defs></svg>